# xmcd
# 
# Track frame offsets:
#     183
#     23570
#     35518
#     44938
#     61925
#     76293
#     86103
#     98343
#     110050
#     136660
#     148253
#     158293
#     167698
#     182988
#     195288
#     213828
#     226908
#     250375
# 
# Disc length: 3647
# 
# Revision: 8
# Processed by: cddbd v1.5.2PL0 Copyright (c) Steve Scherf et al.
# Submitted via: fre:ac v1.0.31
# 
DISCID=e90e3d12
DTITLE=Mary Hopkin - Post Card
DYEAR=1969
DGENRE=Folk/Country
TTITLE0=Those Were the Days
TTITLE1=Lord of the Reedy River
TTITLE2=Happiness Runs (Pebble and the Man)
TTITLE3=Love Is the Sweetest Thing
TTITLE4=Y Blodyn Gwyn
TTITLE5=The Honeymoon Song
TTITLE6=The Puppy Song
TTITLE7=Inch Worm
TTITLE8=Voyage of the Moon
TTITLE9=Lullaby of the Leaves
TTITLE10=Young Love
TTITLE11=Someone to Watch over Me
TTITLE12=Prince en Avignon
TTITLE13=The Game
TTITLE14=There's No Business Like Show Business
TTITLE15=Turn! Turn! Turn! (To Everything There Is a Season)
TTITLE16=Those Were the Days (Quelli Erano Giorni)
TTITLE17=Those Were the Days (En Aquellos Dias)
EXTD=Track 13 - Prince En Avignon - Sung in French\nTrack 05 - Y Blodyn Gwyn - Sung in Welsh\n\nBonus Tracks -\nTrack 17 - Those Were The Days - Sung in Italian\nTrack 18 - Those Were The Days - Sung in Spanish\n\nProduced by Paul McCartney\n\n\n YEAR: 19
EXTD=69
EXTT0=
EXTT1=
EXTT2=
EXTT3=
EXTT4=
EXTT5=
EXTT6=
EXTT7=
EXTT8=
EXTT9=
EXTT10=
EXTT11=
EXTT12=
EXTT13=
EXTT14=
EXTT15=
EXTT16=
EXTT17=
PLAYORDER=
